<?xml version="1.0" encoding="UTF-8"?>
<!DOCTYPE svg PUBLIC "-//W3C//DTD SVG 1.1//EN" "http://www.w3.org/Graphics/SVG/1.1/DTD/svg11.dtd">
<!-- Creator: CorelDRAW 2021 (64-Bit) -->
<svg xmlns="http://www.w3.org/2000/svg" xml:space="preserve" width="101.6mm" height="101.6mm" version="1.1" style="shape-rendering:geometricPrecision; text-rendering:geometricPrecision; image-rendering:optimizeQuality; fill-rule:evenodd; clip-rule:evenodd"
viewBox="0 0 10160 10160"
 xmlns:xlink="http://www.w3.org/1999/xlink"
 xmlns:xodm="http://www.corel.com/coreldraw/odm/2003">

 <g id="Capa_x0020_1">
  <metadata id="CorelCorpID_0Corel-Layer"/>
  <path class="fil0" d="M4489.41 3763.81c-0.28,14.21 -8.1,27.19 -20.55,34.07 -12.45,6.87 -27.64,6.56 -39.82,-0.78 -12.14,-7.36 -19.47,-20.62 -19.19,-34.86 0.57,-68.09 37.05,-130.85 95.95,-165.01 15.78,-9.4 28.87,-22.77 37.95,-38.73 21.86,-38.49 17.37,-86.54 -11.26,-120.28 -28.62,-33.79 -75.28,-46.1 -116.85,-30.88 -41.52,15.27 -69.17,54.79 -69.17,99.07 0,22.07 -17.9,39.96 -39.95,39.96 -22.04,0 -39.92,-17.89 -39.92,-39.96 -0.04,-89.59 64.08,-166.38 152.23,-182.34 88.19,-16 175.16,33.43 206.55,117.34 31.43,83.9 -1.72,178.3 -78.71,224.15 -35.26,20.14 -57.12,57.6 -57.26,98.25zm0.25 113.45c0,22.06 -17.86,39.92 -39.92,39.92 -22.07,0 -39.96,-17.86 -39.96,-39.92l0 -3.05c0,-22.07 17.89,-39.92 39.96,-39.92 22.06,0 39.92,17.85 39.92,39.92l0 3.05zm510.44 1135.05l236.01 -236.57 -236.01 0 0 236.57zm556.13 -1526.95l-72.6 -49.6 -511.63 749.18 72.64 49.6 511.59 -749.18zm-606.76 870.56l-4.13 94.67 166.51 -73.63 -79.13 -54.06 -0.11 -0.07 -79.31 -54.16 -3.83 87.21 0 0.04zm-157.18 -1077.14c-162.38,-162.38 -416.84,-187.46 -607.78,-59.88 -190.97,127.58 -265.2,372.26 -177.32,584.42 87.87,212.16 313.39,332.72 538.63,287.93 225.21,-44.8 387.42,-242.47 387.45,-472.1 0.18,-127.68 -50.59,-250.18 -140.98,-340.37zm-340.38 -220.86c-267.75,0 -498.22,189.11 -550.45,451.71 -52.24,262.61 88.3,525.55 335.67,628.02 247.37,102.43 532.67,15.89 681.41,-206.71 148.77,-222.62 119.51,-519.32 -69.81,-708.64 -105.13,-105.41 -247.94,-164.58 -396.82,-164.38zm1016.77 852.98l-285.58 418.22 -72.65 -49.61 511.63 -749.18 72.61 49.61 -223.03 326.57c-1.09,1.41 -2.06,2.89 -2.98,4.39zm68.82 -554.03l59.88 -87.66c0.99,-1.27 1.86,-2.57 2.71,-3.93 26.13,-35.89 75.7,-45.22 113.08,-21.26 1.27,0.98 2.6,1.86 3.97,2.66l68.79 46.98c1.23,0.97 2.53,1.86 3.9,2.69 35.89,26.13 45.21,75.7 21.25,113.1 -0.97,1.26 -1.86,2.6 -2.67,3.96l-68.75 100.68 -211.07 -144.14 5.93 -8.73c1.09,-1.41 2.11,-2.85 2.98,-4.35zm-1370.78 -776.65l-138 0c-4.13,-0.18 -8.2,1.05 -11.5,3.54 -0.81,0.67 -1.3,0.99 -1.3,1.02l0 262.39c0,0.07 0.49,0.35 1.3,1.01 3.3,2.5 7.37,3.76 11.5,3.58l846.43 0c4.13,0.18 8.2,-1.08 11.5,-3.58 0.81,-0.66 1.29,-0.94 1.29,-1.01l0 -262.39c0,-0.03 -0.48,-0.32 -1.29,-1.02 -3.3,-2.45 -7.37,-3.72 -11.5,-3.54l-138.04 0 0 -0.11c-19.54,0 -36.17,-14.17 -39.29,-33.46 -6.81,-41.29 -35.29,-78.65 -77.31,-106.12 -44.42,-28.97 -103.41,-46.61 -168.6,-46.61 -65.14,0 -124.14,17.64 -168.58,46.65 -41.19,26.9 -69.36,63.36 -76.86,103.7 -2.03,20.41 -19.22,35.95 -39.75,35.95zm-230.71 179.67l0 -86.57 -401.47 0c-51.75,0.21 -93.63,42.1 -93.84,93.83l0 2374.32c0.21,51.71 42.09,93.59 93.84,93.8l1834.79 0c51.71,-0.21 93.59,-42.09 93.84,-93.84l0 -1081.09 -91.03 133.27 0 542.17 -0.1 0c0,10.52 -4.18,20.63 -11.62,28.1l-369.9 370.85c-7.58,8.88 -18.66,13.97 -30.31,13.97l-1337.63 0c-50.13,-0.29 -90.68,-40.87 -90.89,-91l0 -2206.78c0.21,-50.13 40.73,-90.75 90.89,-91.03l313.43 0zm1031.81 -86.57l401.51 0c51.71,0.21 93.63,42.1 93.84,93.83l0 557.23 -22.87 33.43 -0.04 0.1 -0.07 0.08 -68.05 99.69 0 -606.76c-0.21,-50.13 -40.72,-90.75 -90.86,-91.03l-313.42 0 0 -86.57 -0.04 0zm-471.39 2080.99c-22.06,0 -39.95,-17.89 -39.95,-39.96 0,-22.06 17.89,-39.96 39.95,-39.96l268.46 0c22.1,0 39.99,17.9 39.99,39.96 0,22.07 -17.89,39.96 -39.99,39.96l-268.46 0zm0 -201.36c-22.03,0 -39.92,-17.89 -39.92,-39.95 0,-22.03 17.89,-39.92 39.92,-39.92l368.22 0 12.11 -277.72c0,-8.04 2.41,-15.82 6.95,-22.46l408.56 -598.26 0 -723.72c0,-2.97 -1.16,-5.86 -3.26,-7.96 -2.08,-2.04 -4.84,-3.19 -7.73,-3.16l-313.42 0 0 7.41c-0.21,23.99 -11.09,46.68 -29.71,61.84 -17.72,14.7 -39.99,22.69 -63,22.62l-846.43 0c-23.01,0.07 -45.28,-7.92 -63,-22.62 -18.62,-15.16 -29.5,-37.85 -29.67,-61.84l0 -7.44 -313.47 0c-2.91,0 -5.68,1.13 -7.75,3.15 -2.11,2.11 -3.26,4.99 -3.26,7.97l0 2206.81c0,2.98 1.15,5.86 3.26,8 2.07,2.03 4.84,3.15 7.75,3.12l1297.68 0 0 -293.36c0.21,-43.85 35.67,-79.38 79.52,-79.63l292.49 0 0 -385.24 -65.71 96.26 -0.11 0.11c-0.17,0.28 -0.37,0.55 -0.58,0.83l0 0.04c-0.96,1.36 -2.01,2.63 -3.16,3.86 -1.34,1.44 -2.78,2.77 -4.32,4l-0.03 0 -0.78 0.59 -0.73 0.56 -0.07 0.04 -0.57 0.39 -0.17 0.14 -0.11 0.07 -0.59 0.35 -0.14 0.1 -0.03 0 -0.71 0.42 -0.07 0.07 -0.21 0.11 -0.59 0.35 -0.04 0 -0.84 0.46 -0.84 0.45 -0.04 0 -0.6 0.32 -0.21 0.1 -0.1 0.04 -0.73 0.35 -0.04 0 -0.14 0.07 -0.32 0.14 -288.8 127.79c-5.61,2.88 -11.86,4.35 -18.14,4.35l-406.32 0zm-260.04 -122.29l52.09 -40.72c17.33,-13.54 42.34,-10.46 55.88,6.87 13.51,17.3 10.46,42.31 -6.87,55.85l-100.88 78.82 0 261.2c0,22.04 -17.9,39.92 -39.96,39.92l-357.95 0c-10.59,0 -20.73,-4.21 -28.24,-11.68 -7.47,-7.51 -11.68,-17.65 -11.68,-28.24l0 -357.98c0,-10.59 4.21,-20.73 11.68,-28.24 7.51,-7.47 17.65,-11.67 28.24,-11.67l357.95 0c20.49,0 37.67,15.5 39.74,35.87zm-290.35 173.65l58.13 62.65c14.66,15.75 39.18,17.02 55.39,2.88l97.17 -75.91 0 158.8 -278.08 0 0 -278.08 278.08 0 0 18.25 -119.03 92.99 -33.32 -35.88c-15.01,-16.1 -40.2,-17.02 -56.34,-2.04 -16.1,15.01 -17.01,40.2 -2,56.34z"/>
  <path class="fil0" d="M945.05 7346.67c26.36,0 38.05,-11.68 38.05,-38.05l0 -208.23 183.96 0c26.36,0 38.04,-11.69 38.04,-38.05l0 -126.73c0,-26.67 -11.68,-38.05 -38.04,-38.05l-183.96 0 0 -109.96 269.64 0c26.37,0 38.06,-11.68 38.06,-38.05l0 -125.84c0,-26.36 -11.69,-38.04 -38.06,-38.04l-471.58 0c-26.37,0 -38.05,11.68 -38.05,38.04l0 684.91c0,26.37 11.68,38.05 38.05,38.05l163.89 0zm690.29 -570.75l79.1 0c37.15,0 46.74,21.27 46.74,49.73l0 35.95c0,28.47 -9.59,49.74 -46.74,49.74l-79.1 0 0 -135.42zm-38.04 570.75c26.36,0 38.04,-11.68 38.04,-38.05l0 -207.03 148.01 0c29.37,0 40.15,13.48 40.15,45.24l0 161.79c0,26.37 11.38,38.05 38.05,38.05l163.58 0c26.67,0 38.06,-11.68 38.06,-38.05l0 -224.1c0,-88.69 -50.64,-144.72 -127.64,-153.11 44.35,-19.18 59.03,-61.42 59.03,-120.74l0 -48.54c0,-104.56 -49.74,-176.46 -208.23,-176.46l-352.05 0c-26.36,0 -38.04,11.68 -38.04,38.04l0 684.91c0,26.37 11.68,38.05 38.04,38.05l163 0zm860.17 -538.99c5.4,-12.89 11.69,-17.98 20.08,-17.98l26.37 0c8.68,0 14.97,5.09 20.06,17.98l49.74 160.59 -165.98 0 49.73 -160.59zm-60.22 500.94l0 -148 187.26 0 0 148c0,26.37 12.58,38.05 41.05,38.05l159.68 0c26.37,0 38.06,-11.68 38.06,-38.05l0 -278.93c0,-42.25 -12.89,-95.28 -41.35,-169.28l-91.98 -239.99c-8.39,-24.27 -25.16,-34.75 -52.73,-34.75l-284.33 0c-28.46,0 -45.54,10.48 -53.93,34.75l-91.98 239.99c-28.47,74 -41.05,127.03 -41.05,169.28l0 278.93c0,26.37 11.39,38.05 38.06,38.05l155.19 0c26.37,0 38.05,-11.68 38.05,-38.05zm1203.84 -161.79l0 -523.12c0,-26.36 -11.69,-38.04 -38.06,-38.04l-160.59 0c-27.56,0 -38.05,11.68 -38.05,38.04l0 482.08c0,28.46 -12.88,49.43 -87.78,49.43 -74,0 -86.59,-20.97 -86.59,-49.43l0 -482.08c0,-26.36 -11.68,-38.04 -38.05,-38.04l-165.98 0c-26.36,0 -38.05,11.68 -38.05,38.04l0 523.12c0,129.13 64.42,215.72 326.57,215.72 262.16,0 326.58,-86.59 326.58,-215.72zm534.8 199.84c177.66,0 260.05,-68.61 260.05,-215.72l0 -329.57c0,-147.1 -82.39,-215.71 -260.05,-215.71l-356.24 0c-26.36,0 -38.05,11.68 -38.05,38.04l0 684.91c0,26.37 11.69,38.05 38.05,38.05l356.24 0zm-154.3 -559.07l125.83 0c33.86,0 49.74,15.88 49.74,50.63l0 256.77c0,35.95 -15.88,51.83 -49.74,51.83l-125.83 0 0 -359.23zm750.52 559.07c26.36,0 38.05,-11.68 38.05,-38.05l0 -208.23 183.96 0c26.36,0 38.04,-11.69 38.04,-38.05l0 -126.73c0,-26.67 -11.68,-38.05 -38.04,-38.05l-183.96 0 0 -109.96 269.64 0c26.37,0 38.06,-11.68 38.06,-38.05l0 -125.84c0,-26.36 -11.69,-38.04 -38.06,-38.04l-471.58 0c-26.36,0 -38.05,11.68 -38.05,38.04l0 684.91c0,26.37 11.69,38.05 38.05,38.05l163.89 0zm472.48 0l450.31 0c26.37,0 38.05,-11.68 38.05,-38.05l0 -125.84c0,-26.36 -11.68,-38.04 -38.05,-38.04l-102.46 0 0 -355.04 102.46 0c26.37,0 38.05,-11.69 38.05,-38.06l0 -127.93c0,-26.36 -11.68,-38.04 -38.05,-38.04l-450.31 0c-26.36,0 -38.06,11.68 -38.06,38.04l0 127.93c0,26.37 11.7,38.06 38.06,38.06l104.57 0 0 355.04 -104.57 0c-26.36,0 -38.06,11.68 -38.06,38.04l0 125.84c0,26.37 11.7,38.05 38.06,38.05zm1199.64 0c26.36,0 38.04,-11.68 38.04,-38.05l0 -326.57c0,-26.37 -11.68,-38.06 -38.04,-38.06l-163.89 0c-26.36,0 -38.05,11.69 -38.05,38.06l0 164.78 -102.47 0c-32.96,0 -48.84,-15.88 -48.84,-51.83l0 -252.57c0,-35.96 20.08,-52.73 64.72,-52.73l219.62 0c26.66,0 38.04,-11.69 38.04,-38.06l0 -127.93c0,-26.36 -11.38,-38.04 -38.04,-38.04l-264.26 0c-177.37,0 -259.76,68.61 -259.76,215.71l0 329.57c0,147.11 82.39,215.72 259.76,215.72l333.17 0zm368.82 0c26.36,0 38.05,-11.68 38.05,-38.05l0 -234.59 176.47 0 0 234.59c0,26.37 11.68,38.05 38.04,38.05l163.89 0c26.37,0 38.05,-11.68 38.05,-38.05l0 -684.91c0,-26.36 -11.68,-38.04 -38.05,-38.04l-163.89 0c-26.36,0 -38.04,11.68 -38.04,38.04l0 229.51 -176.47 0 0 -229.51c0,-26.36 -11.69,-38.04 -38.05,-38.04l-163.9 0c-26.36,0 -38.04,11.68 -38.04,38.04l0 684.91c0,26.37 11.68,38.05 38.04,38.05l163.9 0zm959.94 0c26.36,0 38.05,-11.68 38.05,-38.05l0 -518.92 155.2 0c26.67,0 38.05,-11.69 38.05,-38.06l0 -127.93c0,-26.36 -11.38,-38.04 -38.05,-38.04l-557.87 0c-26.37,0 -38.05,11.68 -38.05,38.04l0 127.93c0,26.37 11.68,38.06 38.05,38.06l155.19 0 0 518.92c0,26.37 11.68,38.05 38.06,38.05l171.37 0zm862.29 0c26.65,0 38.04,-11.68 38.04,-38.05l0 -123.74c0,-26.36 -11.39,-38.05 -38.04,-38.05l-291.53 0 0 -90.78 206.13 0c26.37,0 38.05,-11.69 38.05,-38.05l0 -113.25c0,-26.36 -11.68,-38.06 -38.05,-38.06l-206.13 0 0 -81.19 291.53 0c26.65,0 38.04,-11.68 38.04,-38.05l0 -123.74c0,-26.36 -11.39,-38.04 -38.04,-38.04l-490.47 0c-26.36,0 -38.05,11.68 -38.05,38.04l0 684.91c0,26.37 11.69,38.05 38.05,38.05l490.47 0zm401.77 -570.75l79.1 0c37.15,0 46.73,21.27 46.73,49.73l0 35.95c0,28.47 -9.58,49.74 -46.73,49.74l-79.1 0 0 -135.42zm-38.05 570.75c26.36,0 38.05,-11.68 38.05,-38.05l0 -207.03 148.01 0c29.36,0 40.14,13.48 40.14,45.24l0 161.79c0,26.37 11.39,38.05 38.06,38.05l163.58 0c26.67,0 38.05,-11.68 38.05,-38.05l0 -224.1c0,-88.69 -50.63,-144.72 -127.63,-153.11 44.34,-19.18 59.02,-61.42 59.02,-120.74l0 -48.54c0,-104.56 -49.74,-176.46 -208.23,-176.46l-352.04 0c-26.36,0 -38.05,11.68 -38.05,38.04l0 684.91c0,26.37 11.69,38.05 38.05,38.05l162.99 0z"/>
  <path class="fil1" d="M4362.72 5467.82l548.99 183c19.29,6.43 32.37,24.53 32.37,44.87l0 202.69c0,209.25 -169.63,378.88 -378.85,378.88 -1151.07,0 -2084.1,-933.34 -2083.75,-2084.38 0.11,-208.87 169.47,-378.23 378.29,-378.23l203.28 0c20.34,0 38.45,13.09 44.9,32.42l182.98 548.95c6.73,20.27 -0.85,42.52 -18.67,54.37l-245.97 163.96c-18.56,12.42 -26.52,36.1 -18.56,56.94 181.67,471.94 607.78,898.05 1079.76,1079.73 20.84,8.06 44.52,0 56.91,-18.57l163.95 -245.96c11.86,-17.83 34.1,-25.41 54.37,-18.67z"/>
  <path class="fil0" d="M7611.49 6277.13l-210.19 0 0 -787.69c0,-19.61 -15.93,-35.54 -35.53,-35.54 -19.64,0 -35.5,15.93 -35.5,35.54l0 787.69 -1717.54 0 0 -787.69c0,-19.61 -15.93,-35.54 -35.53,-35.54 -19.64,0 -35.5,15.93 -35.5,35.54l0 787.69 -212.44 0c-88.86,0 -156.17,-25.68 -200.16,-76.29 -53.32,-61.56 -70.13,-156 -51.25,-288.71 8.35,-58.82 16,-113.54 23.02,-164.31 47.77,-343.1 71.76,-515.3 141.96,-636.04 71.66,-123.31 184.68,-185.01 409.76,-307.89 20.27,-11.05 41.59,-22.73 63.98,-35.04 111.03,138.7 247.3,254.67 405.16,325.39l4.17 4.52 6.14 0c106.74,46.2 223.27,71.78 348.47,69.7 305.82,-5.08 552.64,-163.78 743.26,-399.72 22.62,12.39 44.16,24.13 64.64,35.33 225.01,122.84 337.96,184.51 409.55,307.71 70.16,120.64 94.12,292.69 141.87,635.56 8.45,60.44 17.57,126.28 27.85,198.19 15.11,105.13 -4.18,192.12 -55.74,251.62 -45.36,52.34 -114.67,79.98 -200.45,79.98zm-334.79 -2039.66c-6.17,0 -12.31,-1.43 -17.96,-4.32 -261.93,-135.96 -527.17,-204.93 -788.33,-204.93 -261.16,0 -526.42,68.97 -788.36,204.93 -13.96,7.23 -31.25,5.26 -43.04,-4.8 -11.83,-10.17 -15.58,-26.27 -9.4,-40.2 289.47,-651.31 538.53,-941.76 807.69,-941.76 270.46,0 547.93,298.72 873.15,940.18 7.01,13.89 3.79,30.52 -8.01,41.11 -7.12,6.46 -16.41,9.79 -25.74,9.79zm-1614.72 328.31c-57.53,-96.09 -73.95,-186.42 -49.18,-269.94 31.37,16.56 69.67,17.08 101.98,0.35 234.71,-121.82 489.84,-196.93 755.63,-196.93 265.76,0 520.89,75 755.6,196.87 15.65,8.17 33.05,12.37 50.69,12.37 18,0 35.64,-4.38 51.32,-12.66 24.66,83.45 8.35,173.85 -49.21,269.94 -412.88,689.44 -1180.62,728.37 -1616.83,0zm759.53 280.38c-19.61,0 -35.53,-15.92 -35.53,-35.5l0 -119.51c0,-10.74 4.87,-20.92 13.26,-27.65 8.35,-6.77 19.3,-9.3 29.78,-7.05 47.95,10.35 97.03,1.47 138.28,-25.12 41.22,-26.52 69.6,-67.52 80.02,-115.47 10.38,-47.96 1.5,-97.03 -25.09,-138.22 -26.59,-41.24 -67.6,-69.66 -115.47,-80.04 -47.96,-10.42 -97.03,-1.47 -138.29,25.11 -41.22,26.52 -69.63,67.53 -79.98,115.48 -4.2,19.12 -23.08,31.32 -42.27,27.19 -19.19,-4.14 -31.29,-23.05 -27.14,-42.24 14.37,-66.47 53.8,-123.34 110.91,-160.17 57.18,-36.87 125.31,-49.18 191.78,-34.8 66.47,14.39 123.37,53.82 160.2,110.99 36.8,57.18 49.18,125.27 34.8,191.74 -14.45,66.48 -53.81,123.34 -110.99,160.18 -44.86,28.86 -96.43,42.72 -148.69,40.37l0 79.21c-0.07,19.58 -15.93,35.5 -35.58,35.5zm0 143.96c-19.61,0 -35.53,-15.92 -35.53,-35.5l0 -22.16c0,-19.58 15.92,-35.51 35.53,-35.51 19.65,0 35.51,15.93 35.51,35.51l0 22.16c0,19.58 -15.86,35.5 -35.51,35.5z"/>
 </g>
</svg>
